<svg width="218" height="197" viewBox="0 0 218 197" fill="none" xmlns="http://www.w3.org/2000/svg">
<g clip-path="url(#clip0_432_436)">
<path d="M104.782 39.4743C107.209 37.0173 110.451 36.2714 112.022 37.8082C113.594 39.345 112.9 42.5819 110.472 45.0395C109.516 46.0344 108.334 46.787 107.025 47.2344L96.6095 57.5156L91.8638 52.5506L102.635 42.9422C103.062 41.6323 103.798 40.4431 104.782 39.4743Z" fill="#FFB6B6"/>
<path d="M71.4725 30.9877L82.3928 55.0877L99.8309 45.6977L106.072 48.9927C106.072 48.9927 91.8164 72.7009 82.0559 70.002C72.2953 67.3031 54.9631 42.8316 58.086 35.279C61.2088 27.7263 71.4725 30.9877 71.4725 30.9877Z" fill="#E6E6E6"/>
<path d="M122.094 44.5915C119.559 42.245 118.721 39.0418 120.223 37.4371C121.724 35.8324 124.996 36.434 127.531 38.7816C128.557 39.7056 129.346 40.8606 129.831 42.1498L140.446 52.227L135.586 57.0816L125.637 46.6319C124.309 46.243 123.094 45.5434 122.094 44.5915Z" fill="#A0616A"/>
<path d="M175.564 46.1449L155.075 67.8453C155.075 67.8453 150.474 72.3742 142.904 65.8431C135.334 59.3119 126.918 48.5967 126.918 48.5967L131.639 43.4847L140.003 50.9073C140.003 50.9073 144.968 52.8949 145.313 54.181C145.658 55.467 144.693 55.999 146.245 55.5869C147.796 55.1747 147.826 54.2554 147.923 55.6497C148.021 57.0439 147.073 58.6734 148.865 57.0951C150.658 55.5167 151.192 56.4769 151.192 56.4769L164.288 39.2206C164.288 39.2206 172.75 32.5639 175.182 38.5309C177.615 44.4979 175.564 46.1449 175.564 46.1449Z" fill="#6C63FF"/>
<path d="M66.6842 191.605L74.6469 191.604L78.4347 161.05L66.6826 161.051L66.6842 191.605Z" fill="#FFB6B6"/>
<path d="M93.9651 191.425C94.213 191.84 94.3439 193.181 94.3439 193.664C94.3439 195.149 93.1339 196.353 91.6413 196.353H66.9819C65.9637 196.353 65.1382 195.531 65.1382 194.518V193.497C65.1382 193.497 63.9184 190.428 66.4299 186.644C66.4299 186.644 69.5513 189.607 74.2156 184.967L75.5911 182.488L85.5475 189.732L91.0661 190.407C92.2735 190.555 93.3441 190.384 93.9651 191.425Z" fill="#2F2E41"/>
<path d="M158.457 50.6074H178.19V21.601L158.457 21.601V50.6074Z" fill="#2F2E41"/>
<path d="M173.761 41.7629L173.07 33.455H163.881L161.844 42.2571L173.761 41.7629Z" fill="#A0616A"/>
<path opacity="0.1" d="M173.761 41.7629L173.07 33.455H163.881L161.844 42.2571L173.761 41.7629Z" fill="black"/>
<path d="M72.7096 32.5342L72.8706 21.8503L66.2478 17.7433L59.0461 26.5066L72.7096 32.5342Z" fill="#FFB6B6"/>
<path opacity="0.1" d="M72.7096 32.5342L73.1383 22.1165L66.2478 17.7433L68.5889 30.6357L72.7096 32.5342Z" fill="black"/>
<path d="M167.028 36.0985C172.576 36.0985 177.072 31.625 177.072 26.1067C177.072 20.5884 172.576 16.1149 167.028 16.1149C161.481 16.1149 156.984 20.5884 156.984 26.1067C156.984 31.625 161.481 36.0985 167.028 36.0985Z" fill="#A0616A"/>
<path d="M164.495 15.5946C164.495 15.5946 164.495 11.4927 168.324 12.3717C172.153 13.2507 173.331 14.7157 173.331 14.7157C173.331 14.7157 174.803 17.0596 177.159 17.3526C179.516 17.6456 181.577 24.3844 181.283 25.8494C180.988 27.3144 179.516 31.1233 181.577 32.8813C183.639 34.6392 186.584 37.2762 185.701 39.9131C184.817 42.5501 182.166 49.2889 182.166 49.2889C182.166 49.2889 189.56 50.364 188.956 54.9538C188.956 54.9538 185.406 52.2188 180.694 52.2188C175.981 52.2188 176.57 43.714 176.57 43.714C176.57 43.714 176.276 38.4481 175.392 36.9832C174.509 35.5182 175.687 27.3144 171.269 22.9195C166.851 18.5246 164.495 15.5946 164.495 15.5946Z" fill="#2F2E41"/>
<path d="M165.673 14.7157C165.673 14.7157 160.077 15.8877 158.015 21.4546C155.954 27.0214 156.995 28.0573 156.995 28.0573C156.995 28.0573 156.539 31.4094 154.037 32.5849C151.536 33.7603 153.598 38.7412 153.598 38.7412C153.598 38.7412 153.008 43.7221 145.056 45.48C137.104 47.238 155.028 60.7189 155.028 60.7189C155.028 60.7189 153.74 54.3563 161.986 54.0633C170.233 53.7703 160.372 38.7412 160.372 38.7412L159.488 29.0724C159.488 29.0724 161.255 17.9386 166.557 16.4737C171.858 15.0087 165.673 14.7157 165.673 14.7157Z" fill="#2F2E41"/>
<path d="M72.7302 25.1749C79.2353 25.1749 84.5087 19.9289 84.5087 13.4576C84.5087 6.98636 79.2353 1.74036 72.7302 1.74036C66.2251 1.74036 60.9517 6.98636 60.9517 13.4576C60.9517 19.9289 66.2251 25.1749 72.7302 25.1749Z" fill="#FFB6B6"/>
<path d="M88.7938 103.182L77.8216 177.458H64.0555L65.8859 135.059L66.8494 112.766L64.0555 102.154C64.0555 102.154 62.7816 99.7952 61.7085 96.936C60.4989 93.7093 59.5435 89.8411 60.9618 88.0068C61.4837 87.3306 62.8405 86.8301 64.6843 86.4574C65.811 86.2284 67.1223 86.0501 68.538 85.9116C76.6788 85.1103 88.2586 85.6108 88.2586 85.6108L88.5529 95.2747L88.7162 100.671L88.7938 103.182Z" fill="#2F2E41"/>
<path d="M21.3477 179.771L28.3624 183.519L46.2353 158.387L35.8824 152.855L21.3477 179.771Z" fill="#FFB6B6"/>
<path d="M45.4652 192.457C45.486 192.939 44.9634 194.182 44.7336 194.608C44.0272 195.916 42.3886 196.406 41.0738 195.703L19.3511 184.093C18.4541 183.614 18.1176 182.502 18.5996 181.61L19.0855 180.71C19.0855 180.71 19.4712 177.432 23.4836 175.281C23.4836 175.281 24.8239 179.36 31.1403 177.469L33.5312 175.933L38.8556 187.002L43.3956 190.195C44.3889 190.894 45.4132 191.248 45.4652 192.457Z" fill="#2F2E41"/>
<path d="M88.716 100.671L82.8927 112.286L65.8857 135.059L37.8879 172.551L25.7622 166.072L59 110.399L61.5905 99.734C61.5905 99.734 61.5905 98.5812 61.7082 96.936C61.9384 93.68 62.6288 88.4913 64.6841 86.4574C64.9625 86.1805 65.2649 85.9622 65.594 85.8158C66.2122 85.5389 67.2399 85.6055 68.5378 85.9116C73.9597 87.2001 84.0782 92.735 88.5527 95.2747L88.716 100.671Z" fill="#2F2E41"/>
<path d="M173.013 192.536L166.166 192.536L162.909 166.265L173.014 166.266L173.013 192.536Z" fill="#A0616A"/>
<path d="M149.556 192.382C149.343 192.739 149.23 193.892 149.23 194.307C149.23 195.584 150.271 196.619 151.554 196.619H172.757C173.632 196.619 174.342 195.913 174.342 195.042V194.164C174.342 194.164 175.391 191.524 173.231 188.271C173.231 188.271 170.547 190.819 166.537 186.829L165.354 184.698L156.794 190.926L152.049 191.507C151.011 191.634 150.09 191.487 149.556 192.382Z" fill="#2F2E41"/>
<path d="M199.983 184.51L193.654 187.108L180.571 164.059L189.911 160.226L199.983 184.51Z" fill="#A0616A"/>
<path d="M178.241 193.268C178.181 193.679 178.519 194.788 178.678 195.172C179.168 196.352 180.526 196.914 181.712 196.427L201.312 188.381C202.121 188.049 202.506 187.127 202.173 186.322L201.836 185.51C201.836 185.51 201.793 182.672 198.55 180.485C198.55 180.485 197.046 183.858 191.809 181.692L189.898 180.17L184.373 189.176L180.21 191.514C179.299 192.025 178.392 192.239 178.241 193.268Z" fill="#2F2E41"/>
<path d="M176.154 102.42L173.36 113.032L174.104 130.251L175.338 158.852L175.372 159.658L175.512 162.874L176.154 177.724H162.388L156.259 136.239L151.416 103.448L151.924 86.7503L151.951 85.8771C151.951 85.8771 176.571 84.8122 179.247 88.2731C181.924 91.734 176.154 102.42 176.154 102.42Z" fill="#2F2E41"/>
<path d="M195.307 167.049L192.973 168.249L184.343 172.693L183.08 173.342L175.512 162.874L156.259 136.239L151.416 103.448L151.924 86.7503C154.102 86.0607 155.845 85.7785 156.728 86.1885C160.704 88.0388 160.514 100.168 160.514 100.168L162.936 110.87L174.104 130.251L195.307 167.049Z" fill="#2F2E41"/>
<path d="M145.532 170.323C145.355 169.784 144.013 170.021 143.884 169.539C143.755 169.058 145.044 168.655 146.032 167.301C146.21 167.057 147.333 165.518 146.902 164.87C146.086 163.643 140.406 166.699 139.043 164.984C138.744 164.608 138.621 163.962 137.729 162.759C137.375 162.281 137.147 162.05 136.875 162.057C136.49 162.067 136.352 162.547 135.746 163.416C134.837 164.72 134.509 164.556 133.91 165.625C133.465 166.418 133.412 166.924 133.092 166.954C132.638 166.997 132.451 166.009 131.896 165.971C131.331 165.932 130.765 166.907 130.484 167.67C129.958 169.1 130.284 170.194 130.356 171.283C130.435 172.467 130.25 174.201 128.957 176.426L116.758 195.761C119.377 191.819 126.814 181.071 129.811 177.128C130.676 175.99 131.605 174.847 133.036 174.632C134.413 174.425 136.089 175.103 138.428 175.064C138.702 175.059 139.462 175.036 139.647 174.636C139.8 174.304 139.42 174.016 139.558 173.704C139.744 173.287 140.577 173.466 141.713 173.188C142.514 172.993 143.058 172.669 143.526 172.391C143.667 172.307 145.768 171.041 145.532 170.323Z" fill="#2E4132"/>
<path d="M113.58 174.837C113.263 174.768 112.993 175.492 112.718 175.416C112.444 175.34 112.617 174.595 112.234 173.722C112.164 173.564 111.729 172.572 111.285 172.595C110.445 172.64 110.314 176.295 109.074 176.466C108.802 176.503 108.448 176.377 107.597 176.465C107.259 176.5 107.079 176.545 107.004 176.679C106.898 176.87 107.095 177.076 107.349 177.623C107.73 178.443 107.555 178.556 107.909 179.157C108.172 179.602 108.407 179.774 108.329 179.94C108.219 180.173 107.678 179.98 107.499 180.239C107.316 180.504 107.634 181.062 107.929 181.419C108.483 182.089 109.117 182.245 109.675 182.524C110.282 182.828 111.084 183.418 111.809 184.691L117.828 196.226C116.639 193.81 113.482 187.078 112.402 184.477C112.09 183.726 111.794 182.943 112.101 182.182C112.396 181.45 113.214 180.827 113.87 179.674C113.946 179.539 114.154 179.161 114.01 178.955C113.891 178.785 113.639 178.887 113.525 178.73C113.372 178.519 113.701 178.164 113.892 177.529C114.027 177.082 114.024 176.723 114.022 176.414C114.021 176.321 114.003 174.929 113.58 174.837Z" fill="#2E4132"/>
<path d="M119.586 177.652L119.775 175.914L119.891 175.805C120.428 175.3 120.764 174.765 120.89 174.215C120.91 174.127 120.926 174.039 120.941 173.949C121.004 173.591 121.082 173.147 121.428 172.686C121.621 172.429 122.132 171.848 122.659 172.051C122.802 172.104 122.898 172.196 122.964 172.293C122.981 172.276 122.998 172.259 123.017 172.241C123.244 172.021 123.404 171.94 123.557 171.862C123.675 171.803 123.797 171.741 124.003 171.577C124.093 171.505 124.166 171.441 124.227 171.386C124.412 171.222 124.649 171.029 124.973 171.106C125.316 171.199 125.434 171.525 125.512 171.741C125.652 172.126 125.695 172.391 125.723 172.566C125.734 172.631 125.745 172.703 125.754 172.726C125.83 172.915 126.774 172.964 127.129 172.984C127.927 173.027 128.618 173.064 128.785 173.608C128.904 173.998 128.655 174.422 128.025 174.903C127.828 175.053 127.632 175.157 127.461 175.234C127.566 175.333 127.65 175.467 127.655 175.651C127.667 176.085 127.219 176.418 126.325 176.642C126.103 176.699 125.804 176.773 125.413 176.754C125.229 176.745 125.068 176.717 124.93 176.691C124.91 176.769 124.872 176.85 124.804 176.927C124.605 177.153 124.284 177.211 123.848 177.083C123.366 176.95 122.986 176.768 122.65 176.609C122.357 176.47 122.104 176.351 121.892 176.319C121.498 176.264 121.13 176.506 120.689 176.829L119.586 177.652Z" fill="#2E4132"/>
<path d="M122.735 167.754L120.997 168.012L120.862 167.928C120.235 167.54 119.629 167.352 119.062 167.371C118.972 167.373 118.882 167.381 118.79 167.389C118.427 167.419 117.975 167.456 117.439 167.241C117.14 167.12 116.446 166.776 116.509 166.217C116.525 166.067 116.59 165.951 116.667 165.862C116.647 165.85 116.626 165.838 116.603 165.825C116.332 165.661 116.213 165.529 116.098 165.401C116.01 165.302 115.92 165.201 115.708 165.044C115.615 164.975 115.534 164.922 115.465 164.877C115.259 164.741 115.012 164.562 115.003 164.231C115.007 163.876 115.294 163.68 115.484 163.55C115.823 163.318 116.07 163.21 116.233 163.138C116.293 163.112 116.36 163.082 116.381 163.067C116.545 162.947 116.353 162.026 116.283 161.679C116.122 160.9 115.983 160.226 116.47 159.928C116.818 159.714 117.294 159.846 117.922 160.33C118.117 160.481 118.268 160.644 118.386 160.789C118.456 160.663 118.565 160.548 118.742 160.497C119.161 160.375 119.599 160.722 120.044 161.525C120.155 161.724 120.303 161.993 120.384 162.374C120.422 162.553 120.436 162.716 120.445 162.855C120.526 162.855 120.614 162.87 120.706 162.916C120.977 163.05 121.115 163.345 121.101 163.797C121.093 164.294 121.013 164.706 120.943 165.069C120.883 165.387 120.831 165.66 120.854 165.873C120.9 166.266 121.229 166.559 121.655 166.901L122.735 167.754Z" fill="#2E4132"/>
<path d="M122.969 162.562L123.158 160.824L123.275 160.715C123.811 160.21 124.147 159.676 124.273 159.125C124.293 159.038 124.309 158.949 124.325 158.859C124.388 158.502 124.466 158.057 124.811 157.596C125.004 157.339 125.515 156.758 126.043 156.961C126.185 157.014 126.281 157.106 126.348 157.203C126.365 157.186 126.382 157.169 126.4 157.151C126.628 156.931 126.787 156.85 126.941 156.773C127.059 156.713 127.18 156.651 127.386 156.487C127.477 156.416 127.549 156.351 127.61 156.296C127.795 156.132 128.032 155.94 128.356 156.016C128.7 156.109 128.817 156.435 128.896 156.651C129.035 157.036 129.078 157.301 129.107 157.477C129.117 157.541 129.129 157.613 129.138 157.637C129.213 157.825 130.157 157.874 130.512 157.894C131.311 157.937 132.002 157.975 132.168 158.519C132.287 158.908 132.039 159.332 131.408 159.814C131.212 159.963 131.015 160.067 130.844 160.144C130.949 160.243 131.033 160.378 131.038 160.561C131.05 160.995 130.602 161.328 129.709 161.552C129.486 161.609 129.188 161.683 128.797 161.665C128.612 161.655 128.451 161.627 128.314 161.601C128.293 161.679 128.256 161.76 128.188 161.837C127.989 162.064 127.667 162.121 127.231 161.994C126.75 161.86 126.369 161.679 126.034 161.519C125.74 161.38 125.488 161.261 125.275 161.229C124.881 161.174 124.513 161.416 124.073 161.739L122.969 162.562Z" fill="#2E4132"/>
<path d="M117.334 195.86L117.027 195.558L116.6 195.513C116.602 195.473 116.599 195.38 116.596 195.234C116.58 194.434 116.529 192.001 116.869 188.263C117.107 185.653 117.504 183.004 118.05 180.388C118.597 177.768 119.165 175.818 119.621 174.251C119.965 173.069 120.312 171.948 120.651 170.857C121.555 167.939 122.41 165.184 122.938 162.041C123.057 161.339 123.303 159.878 122.799 158.154C122.507 157.155 122.007 156.214 121.313 155.358L121.985 154.818C122.752 155.763 123.304 156.806 123.629 157.916C124.187 159.827 123.919 161.418 123.79 162.183C123.252 165.382 122.389 168.164 121.476 171.109C121.139 172.197 120.792 173.313 120.45 174.49C119.998 176.043 119.436 177.975 118.896 180.562C118.356 183.147 117.964 185.763 117.729 188.34C117.393 192.031 117.443 194.428 117.46 195.216C117.468 195.636 117.47 195.724 117.334 195.86Z" fill="#2E4132"/>
<path d="M119.469 156.347C119.434 156.34 119.399 156.331 119.364 156.321C118.655 156.123 118.087 155.548 117.674 154.613C117.48 154.173 117.435 153.71 117.344 152.786C117.329 152.644 117.266 151.923 117.344 150.969C117.394 150.345 117.462 150.094 117.632 149.897C117.822 149.678 118.077 149.553 118.347 149.49C118.354 149.407 118.382 149.326 118.435 149.25C118.657 148.932 119.029 149.063 119.231 149.13C119.332 149.167 119.459 149.213 119.601 149.237C119.825 149.275 119.959 149.236 120.161 149.178C120.354 149.122 120.595 149.052 120.927 149.058C121.584 149.067 122.07 149.361 122.23 149.457C123.073 149.962 123.365 150.766 123.702 151.698C123.769 151.885 123.991 152.56 124.043 153.429C124.08 154.056 123.998 154.312 123.903 154.496C123.71 154.873 123.413 155.048 122.678 155.416C121.91 155.802 121.525 155.995 121.209 156.094C120.473 156.324 120.012 156.468 119.469 156.347Z" fill="#2E4132"/>
<path d="M218 196.688C218 196.86 217.859 197 217.686 197H0V196.375H217.686C217.859 196.375 218 196.515 218 196.688Z" fill="#E6E6E6"/>
<path d="M60.5603 24.2463L73.941 30.6356C73.941 30.6356 88.1246 72.4328 88.1246 74.5625C88.1246 76.6923 92.1388 78.0235 89.7303 80.4195C87.3218 82.8155 94.2132 84.8447 90.4999 86.7585C86.7865 88.6724 63.622 99.1411 61.0463 98.197C53.9421 95.5933 61.3473 86.0259 61.3473 86.0259C61.3473 86.0259 56.0108 81.7506 56.8136 79.6208C57.6165 77.491 51.9966 36.7588 51.9966 36.7588L60.5603 24.2463Z" fill="#E6E6E6"/>
<path d="M72.0109 16.2641L73.5259 19.2783C73.5259 19.2783 75.0408 13.8528 77.4648 12.6471C79.8887 11.4415 80.1917 9.63295 80.1917 9.63295C80.1917 9.63295 83.2216 13.5514 85.3426 12.6471C87.4635 11.7429 88.3725 11.14 85.9486 7.52303C83.5246 3.90603 84.1306 5.71453 84.1306 5.71453C84.1306 5.71453 82.0097 2.70036 82.3126 3.60461C82.6156 4.50886 80.4947 1.19327 80.4947 2.09752C80.4947 3.00177 78.9797 0.289021 78.9797 1.19327C78.9797 2.09752 72.6169 -0.916645 73.5259 0.289025C74.4348 1.49469 68.072 -2.12231 65.0421 2.70036C62.0122 7.52303 57.8108 6.63117 59.3055 9.63914C60.8002 12.6471 60.1942 20.7854 60.1942 20.7854H64.3729C64.3729 20.7854 68.678 12.6471 72.0109 16.2641Z" fill="#2F2E41"/>
<path d="M161.184 41.817L161.429 41.7481L173.494 38.3561L183.128 51.4011L176.705 78.5559L179.114 89.4711C179.114 89.4711 159.578 84.4128 151.817 88.6724C151.817 88.6724 151.282 86.2449 151.817 85.0627C152.352 83.8804 153.155 78.9605 152.352 76.7615C151.549 74.5626 153.958 64.1798 153.958 64.1798C153.958 64.1798 153.155 57.258 156.634 53.7971C160.113 50.3362 161.184 41.817 161.184 41.817Z" fill="#6C63FF"/>
<path d="M150.226 90.8505L107.83 69.8906C107.619 69.7864 107.435 69.6427 107.282 69.4639L100.667 61.7082C100.228 61.1938 100.133 60.4679 100.425 59.8589L112.829 33.9702C113.046 33.5165 113.451 33.1815 113.939 33.051C114.427 32.9208 114.946 33.009 115.363 33.2933L145.262 53.696C145.876 54.1147 146.15 54.8741 145.944 55.5857L139.874 76.6007C139.708 77.1755 139.919 77.8027 140.4 78.1615L152.409 87.1212C153.056 87.6037 153.279 88.4838 152.94 89.2138L152.561 90.0326C152.364 90.4574 152.011 90.777 151.567 90.9324C151.379 90.9983 151.185 91.0311 150.992 91.0311C150.729 91.031 150.469 90.9705 150.226 90.8505Z" fill="#6C63FF"/>
<path d="M149.887 85.7492L138.086 75.9815C137.984 75.8963 137.904 75.7925 137.847 75.678C137.74 75.4624 137.719 75.2041 137.799 74.9672L144.524 55.3918C144.698 54.8859 144.511 54.3215 144.067 54.018L116.048 34.9351C115.761 34.7381 115.403 34.6769 115.065 34.7648C114.726 34.8526 114.445 35.0816 114.289 35.393L102.477 59.2547C102.297 59.6141 102.311 60.0267 102.509 60.3701C102.533 60.4181 102.562 60.4633 102.597 60.5059L108.538 68.3063C108.653 68.4554 108.803 68.5778 108.972 68.6603L148.595 87.7459C148.761 87.8258 148.94 87.8657 149.119 87.8657C149.43 87.8657 149.74 87.7459 149.97 87.5143C149.997 87.485 150.024 87.4584 150.051 87.4265C150.238 87.2002 150.334 86.91 150.321 86.6145C150.305 86.279 150.147 85.9649 149.887 85.7492Z" fill="#F2F2F2"/>
<path d="M107.125 57.7905C107.223 57.7905 107.317 57.7369 107.364 57.644L116.969 38.6617C117.035 38.5303 116.982 38.3703 116.85 38.3043C116.718 38.2378 116.557 38.291 116.491 38.4223L106.886 57.4045C106.82 57.5359 106.873 57.696 107.005 57.762C107.044 57.7814 107.085 57.7905 107.125 57.7905Z" fill="#6C63FF"/>
<path d="M112.21 60.9851C112.308 60.9851 112.402 60.9316 112.449 60.8386L122.054 41.8564C122.12 41.725 122.067 41.565 121.935 41.4989C121.803 41.4324 121.642 41.4858 121.576 41.617L111.971 60.5992C111.905 60.7306 111.958 60.8906 112.09 60.9567C112.128 60.976 112.169 60.9851 112.21 60.9851Z" fill="#6C63FF"/>
<path d="M116.492 63.6474C116.59 63.6474 116.684 63.5938 116.731 63.5009L126.335 44.5187C126.402 44.3873 126.349 44.2272 126.217 44.1612C126.084 44.0948 125.924 44.1479 125.857 44.2792L116.253 63.2614C116.186 63.3929 116.239 63.5529 116.371 63.6189C116.41 63.6383 116.451 63.6474 116.492 63.6474Z" fill="#6C63FF"/>
<path d="M101.333 61.076C104.653 60.1 107.852 61.0135 108.476 63.116C109.1 65.2185 106.913 67.7134 103.591 68.6893C102.27 69.0972 100.869 69.1844 99.5065 68.9434L85.3835 72.902L83.6575 66.2693L97.7635 63.0711C98.776 62.132 99.9998 61.4479 101.333 61.076Z" fill="#FFB6B6"/>
<path d="M76.353 37.5702L74.1395 63.9136L93.9671 64.1257L97.8152 70.0203C97.8152 70.0203 73.783 83.863 66.5668 76.7898C59.3506 69.7166 56.1397 39.9518 62.5555 34.857C68.9714 29.7621 76.353 37.5702 76.353 37.5702Z" fill="#E6E6E6"/>
<path d="M141.305 85.1347C137.852 84.876 135.187 82.8939 135.353 80.7079C135.519 78.5219 138.452 76.9601 141.907 77.2194C143.288 77.3041 144.629 77.7167 145.817 78.4225L160.433 79.7025L159.683 86.5131L145.353 84.5282C144.072 85.0491 142.684 85.2571 141.305 85.1347Z" fill="#A0616A"/>
<path d="M184.051 53.1414L181.663 82.8183C181.663 82.8183 180.91 89.2138 170.898 88.8128C160.886 88.4119 147.587 85.2678 147.587 85.2678L148.067 78.342L159.259 78.9467C159.259 78.9467 164.385 77.4158 165.462 78.2061C166.538 78.9963 166.118 80.0113 167.071 78.7259C168.025 77.4406 167.471 76.7036 168.422 77.7324C169.373 78.7612 169.656 80.6226 170.065 78.2766C170.475 75.9305 171.495 76.3485 171.495 76.3485L170.896 54.7352C170.896 54.7352 173.329 44.2799 178.974 47.4305C184.619 50.5812 184.051 53.1414 184.051 53.1414Z" fill="#6C63FF"/>
</g>
<defs>
<clipPath id="clip0_432_436">
<rect width="218" height="197" fill="white"/>
</clipPath>
</defs>
</svg>
