<svg width="276" height="187" viewBox="0 0 276 187" fill="none" xmlns="http://www.w3.org/2000/svg">
<path d="M257.984 114.341C231.371 127.181 153.104 167.797 128.423 180.618C126.14 181.811 123.546 182.439 120.905 182.439C118.264 182.439 115.671 181.811 113.388 180.618L19.5407 131.337C15.8078 129.377 17.0015 125.674 20.762 123.757L151.717 55.3467C152.391 55.0025 153.153 54.8215 153.929 54.8215C154.704 54.8215 155.466 55.0025 156.14 55.3467L258.06 107.456C258.743 107.801 259.31 108.304 259.702 108.913C260.094 109.522 260.297 110.215 260.289 110.919C260.282 111.623 260.064 112.312 259.658 112.914C259.252 113.516 258.674 114.009 257.984 114.341Z" fill="#7F8CFF"/>
<path d="M117.576 119.235C117.576 119.235 114.078 122.957 113.753 124.954C113.429 126.952 113.671 136.833 133.073 136.74C152.476 136.647 151.207 126.114 150.882 125.314C150.558 124.514 146.48 118.596 146.48 118.596" fill="#FA6C00"/>
<path d="M132.197 128.614C140.466 128.614 147.17 125.159 147.17 120.898C147.17 116.636 140.466 113.181 132.197 113.181C123.928 113.181 117.224 116.636 117.224 120.898C117.224 125.159 123.928 128.614 132.197 128.614Z" fill="#F7DD02"/>
<path d="M113.112 99.554C107.654 96.0804 99.3118 101.849 93.4951 102.035C89.5414 102.172 86.5951 100.701 85.1185 97.3334C84.5113 95.9315 83.6695 93.7854 83.7385 92.2471C83.8213 90.1878 85.6981 88.9348 87.2713 87.7191C92.1703 83.9292 99.3187 82.546 103.403 77.9745C105.329 75.8159 101.934 72.727 99.988 74.9041C96.3793 78.9483 89.707 80.4246 85.2082 83.6438C83.0761 85.1697 80.5093 86.9685 79.4467 89.3008C78.3841 91.633 79.15 94.5111 79.8952 96.8868C81.3718 101.613 84.6079 105.397 90.2452 106.191C93.003 106.524 95.8075 106.342 98.4838 105.658C100.326 105.23 102.113 104.628 103.914 104.094C104.714 103.859 105.522 103.623 106.336 103.425C106.741 103.317 107.15 103.224 107.564 103.145C108.65 102.732 109.227 103.319 109.296 104.907C106.246 105.447 107.537 109.633 110.579 109.094C115.603 108.219 117.542 102.376 113.112 99.554Z" fill="#FA6C00"/>
<path d="M174.418 36.6453C171.258 37.4207 168.125 39.6661 165.448 41.2726C162.523 43.0342 159.714 44.926 156.954 46.8861C154.519 48.6229 157.955 51.6746 160.37 49.9565C164.394 47.0329 168.659 44.3871 173.128 42.0417C174.239 41.4711 175.722 40.1251 176.957 41.2912C177.689 41.9797 177.599 43.5676 177.571 44.3926C177.414 46.5566 176.881 48.6852 175.991 50.7008C172.645 58.9257 165.296 65.1347 158.417 71.0397C156.168 72.975 159.583 76.0392 161.833 74.1101C170.996 66.2078 181.47 56.978 182.374 44.8826C182.705 40.6461 180.131 35.2373 174.418 36.6453Z" fill="#FA6C00"/>
<path d="M128.561 106.526C128.561 106.526 129.168 111.73 127.243 114.931C126.259 116.615 125.138 118.232 123.89 119.769C123.89 119.769 123.379 124.973 132.425 124.973C141.471 124.973 139.946 119.949 139.946 119.949C138.333 118.067 137.204 115.887 136.641 113.566C136.078 111.245 136.094 108.841 136.689 106.526" fill="#FEC617"/>
<path d="M139.946 119.936C138.335 118.056 137.207 115.878 136.644 113.56C136.081 111.241 136.096 108.839 136.689 106.526H133.929C134.108 112.729 133.736 120.017 129.313 124.731C130.327 124.903 131.358 124.986 132.39 124.979C141.45 124.954 139.946 119.936 139.946 119.936Z" fill="#FFA407"/>
<path d="M100.05 55.1854V77.3417C100.05 77.3417 100.471 107.624 132.287 107.624C164.103 107.624 163.109 77.0998 163.109 77.0998V55.1854" fill="#FEC617"/>
<path d="M163.116 77.0936V55.1854H144.9C145.052 69.4518 144.162 85.2689 133.86 96.6014C130.311 100.458 125.999 103.692 121.143 106.141C124.747 107.161 128.509 107.661 132.287 107.624C164.11 107.624 163.116 77.0936 163.116 77.0936Z" fill="#FFA407"/>
<path d="M131.59 71.8895C149.001 71.8895 163.116 64.4108 163.116 55.1854C163.116 45.96 149.001 38.4813 131.59 38.4813C114.178 38.4813 100.064 45.96 100.064 55.1854C100.064 64.4108 114.178 71.8895 131.59 71.8895Z" fill="#F7DD02"/>
<path d="M132.301 67.9632C146.823 67.9632 158.596 62.0453 158.596 54.7451C158.596 47.4449 146.823 41.527 132.301 41.527C117.778 41.527 106.005 47.4449 106.005 54.7451C106.005 62.0453 117.778 67.9632 132.301 67.9632Z" fill="#FA6C00"/>
<path d="M107.882 36.0685C107.254 34.5488 106.688 33.0105 106.129 31.4598C105.342 29.2764 104.452 26.9814 104.225 24.6368C104.673 23.5513 106.295 22.7201 107.433 22.4782C108.868 22.1681 110.338 22.7201 111.787 22.6953C113.685 22.6953 115.182 21.9944 116.948 21.5416C118.774 21.1333 120.692 21.213 122.468 21.7711C125.918 22.7201 129.368 22.3914 132.218 20.3631C133.833 19.2093 135.088 18.2665 137.124 17.7827C140.27 17.0384 143.52 17.5656 145.597 19.9475C147.467 22.0936 147.874 24.9097 145.887 27.1179C144.879 28.2344 143.403 28.7182 141.912 29.1028C140.532 29.4563 139.221 30.1945 137.772 30.424H137.614C136.275 30.6225 134.943 30.5542 133.598 30.9078C131.921 31.3544 130.376 32.1049 128.727 32.6321C126.546 33.3331 124.428 33.0601 122.185 32.8058C119.329 32.4833 117.818 33.2772 115.603 34.7411L115.203 34.9892C113.64 35.8397 111.84 36.2701 110.014 36.2298C109.299 36.2304 108.586 36.1765 107.882 36.0685Z" fill="black"/>
<path d="M159.556 19.321C160.052 18.5518 160.563 17.7268 160.991 16.8771C161.15 15.3514 161.219 13.8192 161.198 12.287C161.081 11.6441 161.081 10.9884 161.198 10.3455C161.207 10.2229 161.247 10.1038 161.315 9.99721C161.383 9.89058 161.477 9.7992 161.59 9.72994C161.703 9.66067 161.832 9.61533 161.967 9.59733C162.102 9.57933 162.24 9.58914 162.371 9.62601C162.683 9.74614 162.954 9.93974 163.154 10.1864C163.354 10.4331 163.477 10.7238 163.509 11.0278C163.62 11.5365 163.702 12.0513 163.778 12.5661C164.657 11.1602 165.42 9.69873 166.062 8.19317C166.497 7.24414 168.194 7.74657 167.753 8.70179L167.284 9.72525C167.71 9.16326 168.171 8.62281 168.664 8.10633C169.257 7.48605 170.678 7.88303 170.257 8.80104C169.687 10.0411 169.011 11.2397 168.236 12.3862C168.871 11.6833 169.48 10.9637 170.064 10.2277C170.754 9.3903 172.224 10.2711 171.555 11.1147C170.731 12.1485 169.864 13.1513 168.953 14.123C169.464 13.9059 169.981 13.7012 170.506 13.5027C171.562 13.1058 172.383 14.5324 171.32 14.9294C170.257 15.3264 169.312 15.7295 168.332 16.1699L168.277 16.2692C166.745 18.7503 165.158 21.1983 163.516 23.6133C162.916 24.4941 161.446 23.6133 162.026 22.7263L162.778 21.6098C162.643 21.5767 162.516 21.5195 162.406 21.4418C162.296 21.364 162.204 21.2672 162.136 21.157C162 21.2375 161.843 21.2831 161.68 21.2887C161.517 21.2943 161.356 21.2597 161.214 21.1887C161.072 21.1177 160.954 21.0131 160.873 20.8861C160.792 20.7591 160.752 20.6147 160.756 20.4685C160.58 20.541 160.383 20.562 160.193 20.5286C160.003 20.4952 159.83 20.4091 159.697 20.2823C159.565 20.1556 159.48 19.9946 159.454 19.8222C159.429 19.6497 159.464 19.4744 159.556 19.321Z" fill="#FFC285"/>
<path d="M164.655 13.0499C165.648 14.0176 166.628 15.1775 166.214 16.5731C166.131 16.8523 165.641 16.753 165.724 16.4677C166.09 15.2271 165.186 14.2285 164.344 13.3663C164.096 13.1678 164.441 12.8639 164.655 13.0499Z" fill="#6D320B"/>
<path d="M165.807 12.1506C166.434 10.9706 166.984 9.75903 167.456 8.52196C167.532 8.31727 167.904 8.39171 167.822 8.6026C167.343 9.87118 166.783 11.1138 166.145 12.3243C166.035 12.5103 165.703 12.3491 165.807 12.1506Z" fill="#6D320B"/>
<path d="M167.525 13.0066C168.552 11.6866 169.378 10.2493 169.982 8.7329C170.064 8.52821 170.43 8.60264 170.347 8.81354C169.735 10.3538 168.897 11.814 167.856 13.1555C167.725 13.3478 167.387 13.1865 167.525 13.0066Z" fill="#6D320B"/>
<path d="M168.36 14.7247C169.329 13.7341 170.186 12.66 170.92 11.5179C171.044 11.3318 171.375 11.5179 171.251 11.6792C170.501 12.8456 169.625 13.9426 168.636 14.9542C168.47 15.1217 168.194 14.8922 168.36 14.7247Z" fill="#6D320B"/>
<path d="M123.896 67.2498C128.768 68.0872 135.626 68.8129 142.526 67.5786C146.636 66.8071 150.591 65.4791 154.256 63.6398C154.325 57.437 152.242 51.2343 150.427 45.23L135.316 48.7656C134.308 48.902 127.967 58.9567 123.441 67.2312H123.593C123.694 67.2182 123.798 67.2246 123.896 67.2498Z" fill="#E2E2E2"/>
<path d="M135.192 42.8481C136.089 38.7233 138.159 34.0278 136.434 30.1325C136.62 29.5928 138.221 29.4688 138.428 29.1958L141.126 28.2778C146.28 28.0945 151.16 26.1408 154.76 22.8194C156.9 20.836 158.774 18.6333 160.342 16.2568C162.191 17.2373 163.839 18.4962 165.214 19.9785C165.94 20.7204 166.607 21.5081 167.208 22.3356C164.558 27.2978 159.48 34.4744 151.338 37.2222C151.338 37.2222 151.048 39.9577 150.806 46.3031C150.806 46.3031 144.714 51.2653 134.999 49.5161C135.061 47.0598 135.116 45.3417 135.192 42.8481Z" fill="#68E1FD"/>
<path d="M137.759 29.078C137.759 29.078 127.498 38.5372 108.123 47.3328C108.123 47.3328 109.213 52.8036 111.773 54.8878C111.773 54.8878 134.136 45.7821 139.283 37.6502" fill="#68E1FD"/>
<path d="M145.48 22.5278C145.48 22.5278 147.632 28.1103 143.658 30.6597C139.684 33.209 134.295 27.8995 135.764 22.9124C137.234 17.9254 142.947 17.7269 145.48 22.5278Z" fill="#FFC285"/>
<path d="M135.24 29.8843C135.566 29.9488 135.905 29.9377 136.225 29.852C136.545 29.7663 136.835 29.6088 137.068 29.3943C137.655 28.8608 137.6 28.1041 137.607 27.4094C137.58 26.9583 137.687 26.5088 137.914 26.1061C138.142 25.7033 138.483 25.3614 138.904 25.1144C139.946 24.4941 141.257 24.3018 142.202 23.5203C142.299 23.4396 142.395 23.3528 142.485 23.2597C142.362 23.3622 142.228 23.4536 142.085 23.5327C140.546 24.37 138.269 24.5747 137.551 24.9035C136.834 25.2322 137.979 27.7816 136.696 28.9043C135.412 30.027 132.383 23.0116 134.136 21.1074C135.889 19.2031 141.685 16.9701 144.196 20.1335C144.128 20.4165 144.042 20.6961 143.941 20.9709C143.881 21.8269 143.529 22.6456 142.933 23.3156C141.995 24.3638 140.636 24.5995 139.401 25.2384C139.011 25.4142 138.678 25.6782 138.436 26.0045C138.194 26.3307 138.051 26.7081 138.021 27.0993C138.074 27.7579 137.994 28.4198 137.786 29.0531C137.563 29.4971 137.176 29.8575 136.69 30.0725C136.204 30.2876 135.65 30.3438 135.123 30.2317C134.888 30.1572 135.005 29.8347 135.24 29.8843Z" fill="black"/>
<path d="M98.0559 55.3033C99.305 54.5685 100.615 53.9215 101.975 53.368C101.014 53.6285 100.059 53.9139 99.1116 54.224C98.0352 54.5776 97.3521 53.0951 98.4216 52.7353C99.751 52.297 101.096 51.9083 102.458 51.5692C101.899 51.4886 101.347 51.3955 100.788 51.2963C99.6705 51.0854 99.8844 49.4975 101.009 49.7022C102.134 49.9069 103.169 50.0619 104.259 50.186L104.362 50.1302C105.637 49.5554 106.918 48.9951 108.206 48.4492C108.657 50.2261 109.478 51.91 110.628 53.4114C109.573 54.558 108.585 55.7526 107.668 56.9904C107.367 57.583 106.962 58.1277 106.467 58.6032C106.382 58.6999 106.274 58.7781 106.151 58.8319C106.028 58.8857 105.893 58.9136 105.756 58.9136C105.619 58.9136 105.484 58.8857 105.361 58.8319C105.238 58.7781 105.13 58.6999 105.046 58.6032C104.862 58.3455 104.76 58.0481 104.749 57.7424C104.738 57.4368 104.819 57.1341 104.983 56.8664C105.211 56.395 105.466 55.9236 105.722 55.4646C104.111 56.1889 102.561 57.0181 101.085 57.9457C100.133 58.5101 99.015 57.2386 100.009 56.6679L101.044 56.0476C100.344 56.2892 99.6296 56.4962 98.9046 56.6679C98.049 56.9036 97.1313 55.8429 98.0559 55.3033Z" fill="#68E1FD"/>
<path d="M103.797 54.7761C102.543 55.4223 101.331 56.1326 100.167 56.9036C99.9741 57.0339 99.7188 56.7858 99.912 56.6555C101.099 55.8582 102.336 55.123 103.617 54.4535C103.831 54.3667 104.004 54.6644 103.797 54.7761Z" fill="#68E1FD"/>
<path d="M102.913 53.1819C101.237 53.7509 99.6517 54.5186 98.2008 55.4645C98.0076 55.5886 97.7523 55.3405 97.9455 55.2164C99.4192 54.251 101.03 53.4666 102.734 52.8842C102.969 52.8222 103.141 53.1199 102.913 53.1819Z" fill="#68E1FD"/>
<path d="M103.314 51.3584C101.887 51.6851 100.501 52.1381 99.1737 52.7106C98.9529 52.8036 98.7804 52.5059 99.0012 52.4066C100.353 51.824 101.765 51.3628 103.217 51.0296C103.5 50.9738 103.548 51.3211 103.314 51.3584Z" fill="#68E1FD"/>
<path d="M98.0559 55.3033C99.305 54.5685 100.615 53.9215 101.975 53.368C101.014 53.6285 100.059 53.9139 99.1116 54.224C98.0352 54.5776 97.3521 53.0951 98.4216 52.7353C99.751 52.297 101.096 51.9083 102.458 51.5692C101.899 51.4886 101.347 51.3955 100.788 51.2963C99.6705 51.0854 99.8844 49.4975 101.009 49.7022C102.134 49.9069 103.169 50.0619 104.259 50.186L104.362 50.1302C105.637 49.5554 106.918 48.9951 108.206 48.4492C108.657 50.2261 109.478 51.91 110.628 53.4114C109.573 54.558 108.585 55.7526 107.668 56.9904C107.367 57.583 106.962 58.1277 106.467 58.6032C106.382 58.6999 106.274 58.7781 106.151 58.8319C106.028 58.8857 105.893 58.9136 105.756 58.9136C105.619 58.9136 105.484 58.8857 105.361 58.8319C105.238 58.7781 105.13 58.6999 105.046 58.6032C104.862 58.3455 104.76 58.0481 104.749 57.7424C104.738 57.4368 104.819 57.1341 104.983 56.8664C105.211 56.395 105.466 55.9236 105.722 55.4646C104.111 56.1889 102.561 57.0181 101.085 57.9457C100.133 58.5101 99.015 57.2386 100.009 56.6679L101.044 56.0476C100.344 56.2892 99.6296 56.4962 98.9046 56.6679C98.049 56.9036 97.1313 55.8429 98.0559 55.3033Z" fill="#FFC285"/>
<path d="M103.797 54.7761C102.543 55.4223 101.331 56.1326 100.167 56.9036C99.9741 57.0339 99.7188 56.7858 99.912 56.6555C101.099 55.8582 102.336 55.123 103.617 54.4535C103.831 54.3667 104.004 54.6644 103.797 54.7761Z" fill="#6D320B"/>
<path d="M102.913 53.1819C101.237 53.7509 99.6517 54.5186 98.2008 55.4645C98.0076 55.5886 97.7523 55.3405 97.9455 55.2164C99.4192 54.251 101.03 53.4666 102.734 52.8842C102.969 52.8222 103.141 53.1199 102.913 53.1819Z" fill="#6D320B"/>
<path d="M103.314 51.3584C101.887 51.6851 100.501 52.1381 99.1737 52.7106C98.9529 52.8036 98.7804 52.5059 99.0012 52.4066C100.353 51.824 101.765 51.3628 103.217 51.0296C103.5 50.9738 103.548 51.3211 103.314 51.3584Z" fill="#6D320B"/>
<path d="M56.58 65.5875C55.7106 63.6523 54.0615 60.9913 51.3084 61.2456C50.7733 61.2935 50.2643 61.4769 49.8405 61.7744C49.4167 62.072 49.0955 62.4715 48.9141 62.9265C48.4311 64.1299 48.9141 65.3022 49.2108 66.4869C49.2867 66.8281 49.6938 68.0438 49.3626 68.3478C49.0314 68.6517 48.3552 67.6531 48.0792 67.3305C47.4406 66.4299 46.4598 65.7686 45.3192 65.4697C42.2418 64.8494 41.3724 68.0562 42.1659 70.0845C42.6903 71.4306 45.0846 70.8537 44.5602 69.4643C44.4015 69.0549 44.022 68.1059 44.505 67.7523C44.988 67.3987 45.402 67.895 45.747 68.2237C46.2542 68.8445 46.8001 69.4388 47.3823 70.0039C48.6036 70.9529 50.4252 71.0646 51.3843 69.7558C52.3434 68.447 51.819 66.6544 51.4464 65.2774C51.2463 64.5455 50.8461 62.9824 52.2951 63.6647C53.199 64.0927 53.8476 65.3952 54.1995 66.183C54.7722 67.5228 57.1734 66.9459 56.58 65.5875Z" fill="#E54B5D"/>
<path d="M77.1488 35.7087C73.1537 35.7087 73.1468 41.2912 77.1488 41.2912C81.1508 41.2912 81.1577 35.7087 77.1488 35.7087Z" fill="#68E1FD"/>
<path d="M198.278 51.4017C196.277 49.5409 193.117 52.3818 195.118 54.2426C196.799 55.7953 197.981 57.728 198.538 59.8357C199.096 61.9433 199.009 64.1474 198.285 66.214C197.451 68.6951 201.735 69.7558 202.598 67.2809C203.522 64.5286 203.609 61.6039 202.85 58.8112C202.09 56.0185 200.511 53.4599 198.278 51.4017Z" fill="#22B573"/>
<path d="M193.566 93.1961C192.977 92.6824 192.192 92.3897 191.372 92.3773H190.999C190.178 92.3872 189.392 92.6803 188.805 93.1961C188.223 93.7194 187.897 94.4289 187.897 95.1686C187.897 95.9083 188.223 96.6177 188.805 97.141C189.394 97.6547 190.178 97.9475 190.999 97.9598H191.372C192.193 97.95 192.978 97.6568 193.566 97.141C194.147 96.6177 194.474 95.9083 194.474 95.1686C194.474 94.4289 194.147 93.7194 193.566 93.1961Z" fill="#FEC617"/>
<path d="M74.2716 69.9295C73.6825 69.4158 72.898 69.1231 72.0774 69.1107H71.7048C70.8837 69.1206 70.0981 69.4137 69.5106 69.9295C68.9291 70.4528 68.6025 71.1623 68.6025 71.902C68.6025 72.6417 68.9291 73.3511 69.5106 73.8745C70.0997 74.3881 70.8842 74.6809 71.7048 74.6932H72.0774C72.8986 74.6834 73.6841 74.3902 74.2716 73.8745C74.8531 73.3511 75.1797 72.6417 75.1797 71.902C75.1797 71.1623 74.8531 70.4528 74.2716 69.9295Z" fill="#E54B5D"/>
<path d="M197.795 109.708L188.963 102.965C188.371 102.46 187.586 102.179 186.769 102.179C185.953 102.179 185.167 102.46 184.575 102.965C183.464 103.964 183.292 105.93 184.575 106.91L193.407 113.653C193.999 114.158 194.785 114.44 195.601 114.44C196.418 114.44 197.203 114.158 197.795 113.653C198.906 112.654 199.079 110.688 197.795 109.708Z" fill="#68E1FD"/>
<path d="M73.1401 122.467C72.7744 122.647 71.8498 122.734 72.1534 122.206C72.2569 122.027 72.6364 121.902 72.8434 121.797C73.3928 121.506 73.8847 121.135 74.2993 120.699C74.6873 120.301 74.9102 119.794 74.9303 119.265C74.9504 118.736 74.7665 118.217 74.4097 117.796C73.5955 116.884 72.2431 116.711 71.0287 116.624C70.5457 116.587 69.4348 116.667 69.0967 116.264C68.5171 115.582 69.6073 114.912 70.2076 114.695C71.7877 114.118 71.0977 111.78 69.5176 112.363C67.627 113.051 65.8606 114.49 66.3436 116.525C66.8749 118.751 69.2899 118.82 71.3116 119.055C72.5536 119.198 72.0016 119.39 71.3116 119.8C70.8818 120.038 70.4797 120.315 70.111 120.625C69.771 120.929 69.5238 121.307 69.3933 121.722C69.2628 122.137 69.2533 122.575 69.3658 122.994C69.9799 125.035 72.6985 125.438 74.5201 124.551C76.0381 123.813 74.6788 121.723 73.1401 122.467Z" fill="#68E1FD"/>
<path d="M164.317 69.7371L182.05 137.093C182.477 138.712 179.697 139.407 179.29 137.782L161.536 70.4256C161.108 68.8067 163.889 68.112 164.296 69.7371H164.317Z" fill="#373EA6"/>
<path d="M147.66 77.7139L165.393 145.07C165.821 146.689 163.04 147.384 162.633 145.758L144.9 78.3962C144.472 76.7773 147.253 76.0826 147.66 77.7077V77.7139Z" fill="#373EA6"/>
<path d="M166.159 80.3626L149.523 88.7177C147.902 89.5303 146.446 87.2973 148.067 86.4785L164.71 78.1234C166.331 77.3108 167.787 79.5438 166.166 80.3626H166.159Z" fill="#373EA6"/>
<path d="M167.898 89.7226L151.938 97.7365C150.317 98.5491 148.861 96.3161 150.482 95.4973L166.442 87.4834C168.063 86.6708 169.519 88.9038 167.898 89.7226Z" fill="#373EA6"/>
<path d="M169.83 97.3085L153.87 105.285C152.248 106.098 150.793 103.865 152.414 103.046L168.353 95.0445C169.975 94.232 171.43 96.465 169.809 97.2837L169.83 97.3085Z" fill="#373EA6"/>
<path d="M172.334 105.465L156.54 113.398C154.919 114.211 153.463 111.978 155.084 111.159L170.879 103.226C172.5 102.413 173.956 104.646 172.334 105.465Z" fill="#373EA6"/>
<path d="M174.508 112.933L158.7 120.879C157.079 121.692 155.623 119.459 157.244 118.64L173.073 110.694C174.694 109.881 176.15 112.114 174.529 112.933H174.508Z" fill="#373EA6"/>
<path d="M176.923 121.611L160.28 129.966C158.659 130.779 157.203 128.546 158.824 127.727L175.467 119.372C177.089 118.559 178.544 120.792 176.923 121.611Z" fill="#373EA6"/>
<path d="M122.399 145.293L146.363 156.458L141.45 158.393L124.007 150.268L120.06 151.806L116.803 150.293C117.325 150.03 117.792 149.688 118.183 149.282C118.455 149.023 118.636 148.696 118.701 148.345C118.728 148.098 118.711 147.849 118.652 147.607C118.614 147.417 118.534 147.236 118.418 147.073L118.259 146.887L122.399 145.293Z" fill="#68E1FD"/>
<path d="M121.385 157.339L118.142 158.629L120.819 160.391L124.069 159.107L126.139 160.471L122.82 161.731L126.636 164.212L123.876 165.31L120.067 162.828L116.61 164.212L120.433 166.693L117.673 167.791L113.857 165.31L110.6 166.6L108.53 165.235L111.794 163.945L109.117 162.183L105.853 163.474L103.817 162.109L107.074 160.819L103.245 158.338L106.005 157.24L109.82 159.721L113.312 158.338L109.496 155.857L112.256 154.765L116.086 157.246L119.329 155.956L121.385 157.339ZM118.038 161.483L115.368 159.721L111.87 161.11L114.54 162.872L118.038 161.489" fill="#68E1FD"/>
</svg>
