<svg width="290" height="181" viewBox="0 0 290 181" fill="none" xmlns="http://www.w3.org/2000/svg">
<g clip-path="url(#clip0_420_298)">
<path d="M80.7316 137.02L64.3653 138.503L56.5331 134.054L52.0007 138.503L54.1785 147.89L56.6658 155.3L71.7718 148.907L83.9374 147.991L80.7316 137.02Z" fill="#A0616A"/>
<path d="M163.657 121.301L124.154 120.707L76.1052 137.61L82.5113 149.179L125.934 139.093L193.195 155.107L183.943 117.151L163.657 121.301Z" fill="#2F2E41"/>
<path d="M55.3006 138.098L63.1548 137.587L53.167 120.007C53.167 120.007 48.5407 118.643 47.8277 122.885C47.1147 127.122 53.1891 155.83 54.9689 155.83C56.7487 155.83 62.7182 152.928 62.7182 152.928L53.88 138.987L55.3061 138.098H55.3006Z" fill="#2F2E41"/>
<path d="M252.238 133.285C251.447 133.354 250.585 133.46 249.667 133.616C245.776 134.275 245.699 136.477 245.732 136.979L245.704 136.965C245.312 137.485 245.069 138.015 244.92 138.517L244.743 131.774C244.859 131.576 244.964 131.346 245.052 131.115C245.345 131.862 245.82 132.566 246.229 132.52C246.766 132.46 246.998 131.148 246.898 130.217C247.578 130.945 248.722 131.728 249.153 131.489C249.496 131.295 249.292 130.503 248.916 129.784C249.701 130.181 250.568 130.438 250.839 130.185C251.21 129.844 250.325 128.679 249.513 128.03C250.602 128.113 251.989 127.97 252.077 127.555C252.155 127.214 251.326 126.786 250.447 126.51C251.331 126.316 252.16 125.975 252.133 125.639C252.099 125.239 250.872 124.971 249.811 124.935C250.613 124.414 251.348 123.691 251.121 123.364C250.917 123.065 249.955 123.18 249.065 123.442C249.59 122.816 249.96 122.111 249.679 121.872C249.33 121.572 248.087 122.088 247.235 122.664C247.401 121.77 247.318 120.642 246.837 120.541C246.434 120.453 245.865 121.112 245.472 121.826C245.301 121.075 244.947 120.366 244.544 120.366C243.969 120.366 243.505 121.812 243.505 122.751V122.903C243.449 122.848 243.383 122.788 243.306 122.728C242.493 122.074 240.929 121.347 240.525 121.688C240.243 121.927 240.614 122.632 241.139 123.258C240.249 122.996 239.287 122.876 239.083 123.18C238.806 123.585 239.995 124.589 240.956 125.077C240.901 125.073 240.835 125.068 240.774 125.064C239.646 124.999 237.883 125.289 237.845 125.768C237.817 126.104 238.646 126.445 239.53 126.639C238.646 126.915 237.822 127.343 237.9 127.684C237.988 128.099 239.376 128.242 240.465 128.159C239.652 128.808 238.768 129.973 239.138 130.314C239.409 130.563 240.277 130.305 241.061 129.913C240.686 130.632 240.481 131.424 240.824 131.617C241.277 131.871 242.532 130.987 243.189 130.227C243.123 131.157 243.388 132.437 243.919 132.488C244.14 132.511 244.378 132.313 244.588 132.009L243.985 139.258C243.847 140.101 244.743 140.654 244.826 140.999L244.953 145.909C244.809 145.559 244.61 145.2 244.345 144.845L244.317 144.859C244.35 144.352 244.273 142.155 240.382 141.497C239.464 141.34 238.602 141.234 237.811 141.165C236.877 141.082 236.513 142.146 237.358 142.492C238.58 142.989 239.729 143.615 240.326 144.357C241.857 146.254 243.969 145.158 244.273 144.988C244.61 145.453 244.831 145.923 244.969 146.37L245.036 148.976C245.019 149.036 245.008 149.073 245.008 149.073L245.041 149.082L245.207 155.392L246.755 155.383L246.202 148.935C246.296 148.585 246.583 147.401 246.202 146.172L245.649 141.105L244.931 139.116C245.036 138.498 245.279 137.808 245.771 137.121C246.069 137.292 248.186 138.388 249.717 136.49C250.314 135.749 251.464 135.122 252.685 134.625C253.525 134.28 253.166 133.216 252.232 133.299V133.285H252.238ZM245.185 148.212L245.157 147.107C245.218 147.526 245.212 147.899 245.185 148.212Z" fill="#F2F2F2"/>
<path d="M0 155.263C0 155.567 0.292946 155.811 0.657747 155.811H289.342C289.707 155.811 290 155.567 290 155.263C290 154.959 289.707 154.715 289.342 154.715H0.657747C0.292946 154.715 0 154.959 0 155.263Z" fill="#3F3D56"/>
<path d="M191.548 81.756L195.467 70.7852L206.853 70.4858L211.479 84.128L191.548 81.756Z" fill="#A0616A"/>
<path opacity="0.1" d="M191.548 81.756L195.467 70.7852L206.853 70.4858L211.479 84.128L191.548 81.756Z" fill="black"/>
<path d="M209.031 80.227L190.525 79.6328L184.788 89.466L175.933 133.013L222.379 141.759C222.379 141.759 225.226 93.123 218.82 86.3019C212.413 79.4808 209.031 80.2223 209.031 80.2223V80.227Z" fill="#E6E6E6"/>
<path d="M154.83 46.1262C154.056 42.695 151.309 40.2401 148.684 40.6501C146.058 41.06 144.561 44.1734 145.334 47.6093C145.622 48.9864 146.296 50.2806 147.308 51.3952L150.795 65.9078L157.677 64.7426L154.626 50.253C155.084 48.9081 155.151 47.4941 154.819 46.1262H154.83Z" fill="#A0616A"/>
<path d="M206.262 84.1787L168.466 77.9748L157.843 51.3538L145.942 53.7027L157.881 93.0263L200.662 97.7149L206.262 84.1787Z" fill="#E6E6E6"/>
<path d="M148.701 3.48649C148.662 3.51873 148.629 3.54637 148.59 3.57861C142.869 -1.15607 133.65 -1.19752 127.863 3.48649C122.059 8.18432 121.86 15.8989 127.421 20.7994L127.559 20.9191L148.037 38.4899L169.268 21.3106L169.207 21.26C169.24 21.2323 169.279 21.2047 169.317 21.177C175.182 16.4332 175.314 8.62647 169.621 3.74441C163.928 -1.14225 154.56 -1.25279 148.701 3.4911V3.48649Z" fill="#554ED0"/>
<path d="M153.763 90.6267C153.697 90.6819 153.631 90.7418 153.564 90.7971C143.024 82.0831 126.05 82.0048 115.393 90.6267C104.703 99.2808 104.338 113.489 114.58 122.512L114.835 122.738L152.553 155.097L191.647 123.456L191.537 123.364C191.603 123.313 191.67 123.263 191.736 123.212C202.531 114.475 202.785 100.101 192.3 91.1011C181.814 82.1061 164.564 81.8942 153.763 90.6313V90.6267Z" fill="#554ED0"/>
<path d="M211.43 126.694C211.43 126.694 225.397 136.389 220.213 142.271C215.034 148.152 197.413 158.681 189.453 155.415C181.494 152.15 164.973 128.55 164.973 128.55L160.651 152.725L149.342 151.892C149.342 151.892 141.128 117.745 148.701 112.508C156.279 107.272 190.769 116.529 190.769 116.529L211.424 126.699L211.43 126.694Z" fill="#2F2E41"/>
<path d="M152.166 148.682L148.927 157.069L142.178 164.949L147.352 171.402L163.795 162.379L163.74 157.736L161.159 154.839L159.335 149.285L152.166 148.682Z" fill="#A0616A"/>
<path d="M146.993 168.224L142.864 162.632L128.647 178.057C128.647 178.057 129.305 182.11 134.158 180.701C139.011 179.291 169.096 166.441 168.284 165.12C167.471 163.798 164.138 156.696 164.138 156.696L148.595 168.869L146.998 168.219L146.993 168.224Z" fill="#2F2E41"/>
<path d="M155.72 126.616C151.547 126.961 148.38 129.034 148.645 131.244C148.91 133.455 152.503 134.97 156.676 134.625C158.346 134.505 159.954 134.054 161.374 133.312L179.023 131.668L178.222 125.856L160.634 127.141C159.07 126.643 157.384 126.464 155.72 126.62V126.616Z" fill="#A0616A"/>
<path d="M205.654 87.2L194.975 118.04L162.231 124.562L164.011 134.648L212.06 128.122L221.351 93.0124L205.654 87.2Z" fill="#E6E6E6"/>
<path d="M199.712 74.0692C208.064 74.0692 214.834 68.4274 214.834 61.4679C214.834 54.5085 208.064 48.8667 199.712 48.8667C191.36 48.8667 184.589 54.5085 184.589 61.4679C184.589 68.4274 191.36 74.0692 199.712 74.0692Z" fill="#A0616A"/>
<path d="M200.917 44.5235C200.48 44.7353 199.894 44.4129 199.751 44.0076C199.612 43.6023 199.773 43.1694 199.938 42.7733C200.209 42.1009 200.48 41.4284 200.756 40.7606C201.337 39.3328 201.95 37.8544 203.205 36.7675C205.095 35.1278 208.102 34.7087 210.811 35.0127C214.287 35.3996 217.714 36.9701 219.334 39.5631C220.948 42.1561 220.262 45.7762 217.344 47.3928C221.506 51.3676 222.954 55.7983 222.727 61.0672C222.501 66.3408 215.603 71.1906 211.109 74.9028C210.103 74.3962 209.191 72.0196 209.744 71.1537C210.297 70.2925 209.506 69.2884 210.186 68.4962C210.866 67.704 211.441 68.966 210.75 68.1784C210.313 67.681 212.016 66.5296 211.369 66.2348C208.235 64.7886 207.19 61.5324 205.217 59.0361C202.84 56.0286 198.772 53.9882 194.472 53.652C192.101 53.4678 189.597 53.804 187.657 54.9508C185.711 56.0976 184.457 58.1472 184.904 60.0954C183.738 59.1098 183.158 57.659 183.373 56.2865C183.594 54.914 184.606 53.6428 186.043 52.9427C185.17 50.5385 185.916 47.7705 187.944 45.9098C189.973 44.0491 198.192 44.3669 201.149 44.8551L200.922 44.5281L200.917 44.5235Z" fill="#2F2E41"/>
<path d="M201.381 53.7211C205.3 54.0757 208.13 56.9036 210.518 59.5151C211.894 61.0211 213.337 62.6838 213.303 64.5767C213.27 66.4881 211.734 68.1323 210.999 69.947C209.799 72.9131 210.965 76.4365 213.823 78.4676C211.004 78.9143 207.953 77.1503 207.467 74.7922C206.897 72.0472 209.396 69.3989 209.103 66.6217C208.843 64.176 206.533 62.2969 204.565 60.4684C202.597 58.64 200.757 56.2174 201.657 53.8823L201.381 53.7257V53.7211Z" fill="#2F2E41"/>
</g>
<defs>
<clipPath id="clip0_420_298">
<rect width="290" height="181" fill="white"/>
</clipPath>
</defs>
</svg>
