<svg width="53" height="56" viewBox="0 0 53 56" fill="none" xmlns="http://www.w3.org/2000/svg">
<g clip-path="url(#clip0_1701_15036)">
<path d="M43.5209 2.91006C40.8597 0.562948 37.2733 -0.441936 33.78 0.180698C30.1587 0.828671 26.9868 2.99324 25.0634 6.12925C23.14 2.99324 19.9681 0.828671 16.3468 0.180698C12.8536 -0.440988 9.26751 0.56381 6.60589 2.91006C3.40533 5.84336 2.26263 10.8007 3.47075 16.5123C3.47523 16.5337 3.48962 16.5497 3.49591 16.5703C3.52668 16.6634 3.57383 16.7503 3.6352 16.8268C3.64907 16.8436 3.65476 16.8642 3.67053 16.88C3.69087 16.8952 3.71199 16.9092 3.73388 16.9222C3.77138 16.9529 3.81188 16.9799 3.85481 17.0025C3.93677 17.0455 4.02632 17.0724 4.11846 17.0815C4.14285 17.0839 4.16604 17.0956 4.19043 17.0956C4.21672 17.0919 4.24283 17.0868 4.26852 17.0803C4.29325 17.0814 4.31799 17.0813 4.34264 17.0797C4.36419 17.0752 4.38013 17.0608 4.4009 17.0546C4.44745 17.0399 4.49235 17.0205 4.53484 16.9966C4.57871 16.9737 4.62008 16.9462 4.65827 16.9146C4.67464 16.9009 4.69498 16.8954 4.71032 16.88L7.29748 14.2936L7.3061 14.2879C7.87322 13.7191 8.79209 13.7114 9.3687 14.2705C9.94531 14.8297 9.96591 15.7484 9.41481 16.3327L5.17144 20.5761C4.98492 20.7615 4.91166 21.0325 4.97924 21.2866C5.04681 21.5408 5.24504 21.7396 5.49896 21.8078C5.75287 21.8761 6.02403 21.8036 6.21002 21.6176L10.4069 17.4208C10.4127 17.4153 10.4204 17.4137 10.4262 17.408C10.4371 17.3971 10.4441 17.3839 10.4549 17.3729L13.0056 14.8222C13.012 14.8161 13.0206 14.8143 13.0269 14.808C13.6083 14.2506 14.5256 14.2506 15.1069 14.808C15.677 15.3801 15.6799 16.3046 15.1134 16.8802L15.1048 16.8859L7.27378 24.7177C7.08804 24.9035 7.01547 25.1742 7.08347 25.428C7.15147 25.6819 7.34971 25.88 7.60345 25.948C7.85719 26.016 8.128 25.9435 8.31383 25.7577L15.112 18.9674L15.1298 18.9496C15.711 18.3907 16.634 18.4044 17.1983 18.9803C17.7627 19.5562 17.7576 20.4793 17.187 21.049L15.628 22.6084L15.6271 22.609L9.94427 28.2922C9.75845 28.478 9.68596 28.7488 9.75397 29.0026C9.82197 29.2563 10.0202 29.4546 10.2739 29.5226C10.5277 29.5906 10.7985 29.518 10.9843 29.3323L16.668 23.6481C17.2425 23.0738 18.1739 23.074 18.7483 23.6486C19.3226 24.2231 19.3225 25.1545 18.7479 25.7288C18.7447 25.732 18.7439 25.7363 18.7408 25.7395L13.0407 31.4396C13.037 31.4433 13.0361 31.4484 13.0324 31.4521C13.0287 31.456 13.0235 31.4573 13.0199 31.4611C12.993 31.4971 12.9697 31.5354 12.9502 31.5759C12.9217 31.614 12.897 31.6548 12.8763 31.6977C12.8627 31.7432 12.8535 31.7899 12.8491 31.8371C12.8192 31.926 12.8212 32.0225 12.8546 32.1102C12.8609 32.1573 12.872 32.2038 12.8874 32.2487C12.9103 32.2918 12.9373 32.3324 12.9681 32.3703C12.9888 32.4089 13.0131 32.4455 13.0408 32.4796C13.0445 32.4833 13.0496 32.4843 13.0533 32.4878C13.0572 32.4915 13.0585 32.4967 13.0624 32.5003C16.6543 35.7268 20.5443 38.6053 24.68 41.0971C24.9156 41.2407 25.2116 41.2407 25.4471 41.0971C29.5827 38.6053 33.4727 35.7268 37.0647 32.5003C37.0687 32.4967 37.0699 32.4915 37.0737 32.4878C37.0774 32.4842 37.0825 32.4832 37.0862 32.4796C37.1138 32.4455 37.1381 32.4089 37.1589 32.3703C37.1897 32.3325 37.2167 32.2918 37.2397 32.2487C37.2631 32.1582 37.2829 32.0666 37.2989 31.9744C37.2962 31.928 37.2892 31.8821 37.2778 31.8371C37.2734 31.7898 37.2644 31.7431 37.2507 31.6977C37.23 31.6548 37.2052 31.614 37.1767 31.5759C37.1573 31.5354 37.1339 31.4971 37.107 31.4611C37.1034 31.4572 37.0982 31.456 37.0944 31.4521C37.0908 31.4484 37.0899 31.4433 37.0862 31.4396L31.3861 25.7395C31.383 25.7363 31.3821 25.732 31.379 25.7288C30.8045 25.1545 30.8043 24.2231 31.3786 23.6486C31.953 23.074 32.8843 23.0739 33.4589 23.6481L39.1426 29.3323C39.4297 29.6194 39.8953 29.6194 40.1826 29.3323C40.4698 29.0451 40.4698 28.5794 40.1826 28.2922L34.5002 22.6092L34.499 22.6081L32.9399 21.0487C32.5682 20.6771 32.423 20.1355 32.559 19.6278C32.6949 19.1202 33.0914 18.7235 33.599 18.5874C34.1067 18.4513 34.6484 18.5964 35.02 18.968L35.0288 18.9738L41.8132 25.7576C42.1008 26.0422 42.5645 26.0411 42.8506 25.7549C43.1367 25.4687 43.138 25.0051 42.8532 24.7175L36.0657 17.9364L36.06 17.9279C36.0553 17.9232 36.0496 17.9202 36.0448 17.9155L35.0221 16.8857L35.0199 16.8842C34.4462 16.3102 34.4463 15.3798 35.0203 14.806C35.5943 14.2323 36.5247 14.2324 37.0985 14.8064C37.1048 14.8127 37.1134 14.8146 37.1198 14.8206L39.6008 17.3017C39.6305 17.337 39.6618 17.3697 39.701 17.4089L39.702 17.4101L43.9167 21.6175C44.1026 21.8035 44.3737 21.8761 44.6277 21.8077C44.8817 21.7395 45.0799 21.5407 45.1475 21.2866C45.215 21.0324 45.1418 20.7615 44.9553 20.576L40.7348 16.365C40.7221 16.3486 40.7076 16.3336 40.6937 16.3182L40.6903 16.3125C40.1604 15.7321 40.1832 14.8369 40.742 14.2842C41.3231 13.7283 42.2388 13.7283 42.8198 14.2842L45.4163 16.88C45.4316 16.8954 45.4521 16.9009 45.4684 16.9146C45.5451 16.9762 45.6323 17.0236 45.7258 17.0545C45.7466 17.0608 45.7625 17.0751 45.7841 17.0796C45.8339 17.09 45.8846 17.0952 45.9355 17.0952L45.9365 17.0954C46.0258 17.0945 46.1148 17.0773 46.1979 17.0445C46.2207 17.0333 46.2429 17.0209 46.2645 17.0073C46.3234 16.9788 46.3782 16.9424 46.4274 16.8992C46.4362 16.8912 46.4477 16.8885 46.4563 16.88C46.4718 16.8645 46.4774 16.844 46.4912 16.8274C46.5291 16.7832 46.5615 16.7344 46.5875 16.6823C46.6041 16.649 46.618 16.6145 46.6291 16.579C46.6392 16.5572 46.6481 16.535 46.6559 16.5123C47.8641 10.8007 46.7214 5.84336 43.5209 2.91006ZM45.4552 14.8391L43.8599 13.2442C42.6965 12.1334 40.8654 12.1334 39.7019 13.2442C39.3383 13.6108 39.0771 14.0663 38.9444 14.5653L38.1454 13.7663C38.1341 13.755 38.1189 13.7512 38.1069 13.7407C37.0881 12.7423 35.4983 12.6227 34.3415 13.4574C33.1848 14.2922 32.7973 15.8386 33.4237 17.1201C32.4103 17.3133 31.5733 18.0254 31.2203 18.9947C30.8674 19.964 31.0505 21.0476 31.7024 21.8471C31.1869 21.9718 30.7154 22.2352 30.3388 22.6086C29.1987 23.7528 29.1929 25.6018 30.326 26.753C30.3314 26.7588 30.333 26.7666 30.3388 26.7723L35.4948 31.9283C32.2434 34.7808 28.7534 37.3495 25.0633 39.6059C21.3732 37.3494 17.8832 34.7808 14.6318 31.9283L19.7878 26.7723C19.7936 26.7666 19.7951 26.7588 19.8007 26.753C20.9337 25.6017 20.9279 23.7528 19.7878 22.6086C19.4109 22.2355 18.9394 21.9723 18.424 21.8474C19.0756 21.0482 19.259 19.9652 18.9066 18.9961C18.5543 18.0269 17.7182 17.3145 16.7054 17.1204C17.2507 15.9977 17.0267 14.6531 16.147 13.7677C14.9964 12.6677 13.1878 12.6552 12.0221 13.7393C12.0092 13.7506 11.9927 13.7547 11.9805 13.767L11.1754 14.5721C11.0477 14.072 10.789 13.6149 10.4262 13.2477C9.28423 12.108 7.43745 12.1006 6.28639 13.2311C6.28044 13.2367 6.2726 13.2383 6.26682 13.2441L4.67137 14.8391C4.00728 10.2412 5.04276 6.33765 7.59983 3.9945C9.9379 1.97206 13.0598 1.10474 16.1061 1.63144C19.5644 2.20529 22.5164 4.43691 24.4176 7.91613C24.5581 8.13686 24.8016 8.27063 25.0633 8.27063C25.325 8.27063 25.5686 8.13695 25.709 7.91613C27.6103 4.43691 30.5622 2.20538 34.0206 1.63144C37.0668 1.10491 40.1885 1.97215 42.5268 3.9945C45.0839 6.33774 46.1194 10.2413 45.4552 14.8391Z" fill="white"/>
<path d="M3.7203 55.084C3.1363 55.084 2.6083 54.984 2.1363 54.784C1.6723 54.584 1.3043 54.296 1.0323 53.92C0.760305 53.544 0.620305 53.1 0.612305 52.588H2.4123C2.4363 52.932 2.5563 53.204 2.7723 53.404C2.9963 53.604 3.3003 53.704 3.6843 53.704C4.0763 53.704 4.3843 53.612 4.6083 53.428C4.8323 53.236 4.9443 52.988 4.9443 52.684C4.9443 52.436 4.8683 52.232 4.7163 52.072C4.5643 51.912 4.3723 51.788 4.1403 51.7C3.9163 51.604 3.6043 51.5 3.2043 51.388C2.6603 51.228 2.2163 51.072 1.8723 50.92C1.5363 50.76 1.2443 50.524 0.996305 50.212C0.756305 49.892 0.636305 49.468 0.636305 48.94C0.636305 48.444 0.760305 48.012 1.0083 47.644C1.2563 47.276 1.6043 46.996 2.0523 46.804C2.5003 46.604 3.0123 46.504 3.5883 46.504C4.4523 46.504 5.1523 46.716 5.6883 47.14C6.2323 47.556 6.5323 48.14 6.5883 48.892H4.7403C4.7243 48.604 4.6003 48.368 4.3683 48.184C4.1443 47.992 3.8443 47.896 3.4683 47.896C3.1403 47.896 2.8763 47.98 2.6763 48.148C2.4843 48.316 2.3883 48.56 2.3883 48.88C2.3883 49.104 2.4603 49.292 2.6043 49.444C2.7563 49.588 2.9403 49.708 3.1563 49.804C3.3803 49.892 3.6923 49.996 4.0923 50.116C4.6363 50.276 5.0803 50.436 5.4243 50.596C5.7683 50.756 6.0643 50.996 6.3123 51.316C6.5603 51.636 6.6843 52.056 6.6843 52.576C6.6843 53.024 6.5683 53.44 6.3363 53.824C6.1043 54.208 5.7643 54.516 5.3163 54.748C4.8683 54.972 4.3363 55.084 3.7203 55.084ZM7.7088 51.652C7.7088 50.98 7.8408 50.384 8.1048 49.864C8.3768 49.344 8.7408 48.944 9.1968 48.664C9.6608 48.384 10.1768 48.244 10.7448 48.244C11.2408 48.244 11.6728 48.344 12.0408 48.544C12.4168 48.744 12.7168 48.996 12.9408 49.3V48.352H14.6328V55H12.9408V54.028C12.7248 54.34 12.4248 54.6 12.0408 54.808C11.6648 55.008 11.2288 55.108 10.7328 55.108C10.1728 55.108 9.6608 54.964 9.1968 54.676C8.7408 54.388 8.3768 53.984 8.1048 53.464C7.8408 52.936 7.7088 52.332 7.7088 51.652ZM12.9408 51.676C12.9408 51.268 12.8608 50.92 12.7008 50.632C12.5408 50.336 12.3248 50.112 12.0528 49.96C11.7808 49.8 11.4888 49.72 11.1768 49.72C10.8648 49.72 10.5768 49.796 10.3128 49.948C10.0488 50.1 9.8328 50.324 9.6648 50.62C9.5048 50.908 9.4248 51.252 9.4248 51.652C9.4248 52.052 9.5048 52.404 9.6648 52.708C9.8328 53.004 10.0488 53.232 10.3128 53.392C10.5848 53.552 10.8728 53.632 11.1768 53.632C11.4888 53.632 11.7808 53.556 12.0528 53.404C12.3248 53.244 12.5408 53.02 12.7008 52.732C12.8608 52.436 12.9408 52.084 12.9408 51.676ZM18.2296 49.732V52.948C18.2296 53.172 18.2816 53.336 18.3856 53.44C18.4976 53.536 18.6816 53.584 18.9376 53.584H19.7176V55H18.6616C17.2456 55 16.5376 54.312 16.5376 52.936V49.732H15.7456V48.352H16.5376V46.708H18.2296V48.352H19.7176V49.732H18.2296ZM27.202 48.352V55H25.51V54.16C25.294 54.448 25.01 54.676 24.658 54.844C24.314 55.004 23.938 55.084 23.53 55.084C23.01 55.084 22.55 54.976 22.15 54.76C21.75 54.536 21.434 54.212 21.202 53.788C20.978 53.356 20.866 52.844 20.866 52.252V48.352H22.546V52.012C22.546 52.54 22.678 52.948 22.942 53.236C23.206 53.516 23.566 53.656 24.022 53.656C24.486 53.656 24.85 53.516 25.114 53.236C25.378 52.948 25.51 52.54 25.51 52.012V48.352H27.202ZM35.8076 46.624V55H34.1276V51.436H30.5396V55H28.8596V46.624H30.5396V50.068H34.1276V46.624H35.8076ZM37.0291 51.652C37.0291 50.98 37.1611 50.384 37.4251 49.864C37.6971 49.344 38.0611 48.944 38.5171 48.664C38.9811 48.384 39.4971 48.244 40.0651 48.244C40.5611 48.244 40.9931 48.344 41.3611 48.544C41.7371 48.744 42.0371 48.996 42.2611 49.3V48.352H43.9531V55H42.2611V54.028C42.0451 54.34 41.7451 54.6 41.3611 54.808C40.9851 55.008 40.5491 55.108 40.0531 55.108C39.4931 55.108 38.9811 54.964 38.5171 54.676C38.0611 54.388 37.6971 53.984 37.4251 53.464C37.1611 52.936 37.0291 52.332 37.0291 51.652ZM42.2611 51.676C42.2611 51.268 42.1811 50.92 42.0211 50.632C41.8611 50.336 41.6451 50.112 41.3731 49.96C41.1011 49.8 40.8091 49.72 40.4971 49.72C40.1851 49.72 39.8971 49.796 39.6331 49.948C39.3691 50.1 39.1531 50.324 38.9851 50.62C38.8251 50.908 38.7451 51.252 38.7451 51.652C38.7451 52.052 38.8251 52.404 38.9851 52.708C39.1531 53.004 39.3691 53.232 39.6331 53.392C39.9051 53.552 40.1931 53.632 40.4971 53.632C40.8091 53.632 41.1011 53.556 41.3731 53.404C41.6451 53.244 41.8611 53.02 42.0211 52.732C42.1811 52.436 42.2611 52.084 42.2611 51.676ZM47.5499 49.732V52.948C47.5499 53.172 47.6019 53.336 47.7059 53.44C47.8179 53.536 48.0019 53.584 48.2579 53.584H49.0379V55H47.9819C46.5659 55 45.8579 54.312 45.8579 52.936V49.732H45.0659V48.352H45.8579V46.708H47.5499V48.352H49.0379V49.732H47.5499ZM51.0983 47.56C50.8023 47.56 50.5543 47.468 50.3543 47.284C50.1623 47.092 50.0663 46.856 50.0663 46.576C50.0663 46.296 50.1623 46.064 50.3543 45.88C50.5543 45.688 50.8023 45.592 51.0983 45.592C51.3943 45.592 51.6383 45.688 51.8303 45.88C52.0303 46.064 52.1303 46.296 52.1303 46.576C52.1303 46.856 52.0303 47.092 51.8303 47.284C51.6383 47.468 51.3943 47.56 51.0983 47.56ZM51.9263 48.352V55H50.2463V48.352H51.9263Z" fill="white"/>
</g>
<defs>
<clipPath id="clip0_1701_15036">
<rect width="53" height="56" fill="white"/>
</clipPath>
</defs>
</svg>
