<svg width="358" height="301" viewBox="0 0 358 301" fill="none" xmlns="http://www.w3.org/2000/svg">
<g filter="url(#filter0_d_438_524)">
<mask id="mask0_438_524" style="mask-type:alpha" maskUnits="userSpaceOnUse" x="0" y="0" width="358" height="301">
<rect width="358" height="301" fill="#D9D9D9"/>
</mask>
<g mask="url(#mask0_438_524)">
<path d="M162.965 176.21L247.617 105.35L226.361 87.4781L162.965 140.78L131.267 114.129L110.384 131.688L162.965 176.21ZM14.917 263.375V238.292H343.084V263.375H14.917ZM59.667 225.75C51.4628 225.75 44.4396 223.294 38.5972 218.382C32.7548 213.47 29.8337 207.565 29.8337 200.667V62.7083C29.8337 55.8104 32.7548 49.9054 38.5972 44.9932C44.4396 40.0811 51.4628 37.625 59.667 37.625H298.334C306.538 37.625 313.561 40.0811 319.403 44.9932C325.246 49.9054 328.167 55.8104 328.167 62.7083V200.667C328.167 207.565 325.246 213.47 319.403 218.382C313.561 223.294 306.538 225.75 298.334 225.75H59.667ZM59.667 200.667H298.334V62.7083H59.667V200.667Z" fill="#70DD1A"/>
</g>
</g>
<defs>
<filter id="filter0_d_438_524" x="10.917" y="37.625" width="336.167" height="233.75" filterUnits="userSpaceOnUse" color-interpolation-filters="sRGB">
<feFlood flood-opacity="0" result="BackgroundImageFix"/>
<feColorMatrix in="SourceAlpha" type="matrix" values="0 0 0 0 0 0 0 0 0 0 0 0 0 0 0 0 0 0 127 0" result="hardAlpha"/>
<feOffset dy="4"/>
<feGaussianBlur stdDeviation="2"/>
<feComposite in2="hardAlpha" operator="out"/>
<feColorMatrix type="matrix" values="0 0 0 0 0 0 0 0 0 0 0 0 0 0 0 0 0 0 0.25 0"/>
<feBlend mode="normal" in2="BackgroundImageFix" result="effect1_dropShadow_438_524"/>
<feBlend mode="normal" in="SourceGraphic" in2="effect1_dropShadow_438_524" result="shape"/>
</filter>
</defs>
</svg>
